<?xml version="1.0" encoding="UTF-8"?>
<svg xmlns="http://www.w3.org/2000/svg" xmlns:xlink="http://www.w3.org/1999/xlink" viewBox="0 0 48 48" width="48px" height="48px">
<g id="surface8827900">
<path style=" stroke:none;fill-rule:nonzero;fill:rgb(36.078432%,41.960785%,75.294119%);fill-opacity:1;" d="M 48 41.332031 C 48 45.015625 45.015625 48 41.332031 48 L 6.667969 48 C 2.984375 48 0 45.015625 0 41.332031 L 0 6.667969 C 0 2.984375 2.984375 0 6.667969 0 L 41.332031 0 C 45.015625 0 48 2.984375 48 6.667969 Z M 48 41.332031 "/>
<path style=" stroke:none;fill-rule:nonzero;fill:rgb(100%,100%,100%);fill-opacity:1;" d="M 37.332031 9.332031 L 10.667969 9.332031 C 9.929688 9.332031 9.332031 9.929688 9.332031 10.667969 L 9.332031 26.667969 C 9.332031 27.402344 9.929688 28 10.667969 28 L 37.332031 28 C 38.070312 28 38.667969 27.402344 38.667969 26.667969 L 38.667969 10.667969 C 38.667969 9.929688 38.070312 9.332031 37.332031 9.332031 Z M 36 14.667969 L 24 20 L 12 14.667969 L 12 12 L 36 12 Z M 36 14.667969 "/>
<path style=" stroke:none;fill-rule:nonzero;fill:rgb(100%,100%,100%);fill-opacity:1;" d="M 7.144531 35.929688 L 9.152344 35.929688 L 10.320312 38.917969 L 11.503906 35.929688 L 13.457031 35.929688 L 10.515625 43.003906 L 8.550781 43.003906 L 9.355469 41.128906 Z M 7.144531 35.929688 "/>
<path style=" stroke:none;fill-rule:nonzero;fill:rgb(100%,100%,100%);fill-opacity:1;" d="M 15.488281 35.8125 C 13.980469 35.8125 13.03125 37.164062 13.03125 38.507812 C 13.03125 40.023438 14.074219 41.222656 15.460938 41.222656 C 16.496094 41.222656 16.882812 40.59375 16.882812 40.59375 L 16.882812 41.085938 L 18.632812 41.085938 L 18.632812 35.929688 L 16.882812 35.929688 L 16.882812 36.398438 C 16.882812 36.398438 16.449219 35.8125 15.488281 35.8125 Z M 15.859375 37.46875 C 16.558594 37.46875 16.914062 38.019531 16.914062 38.515625 C 16.914062 39.050781 16.53125 39.574219 15.859375 39.574219 C 15.304688 39.574219 14.804688 39.121094 14.804688 38.535156 C 14.804688 37.945312 15.207031 37.46875 15.859375 37.46875 Z M 15.859375 37.46875 "/>
<path style=" stroke:none;fill-rule:nonzero;fill:rgb(100%,100%,100%);fill-opacity:1;" d="M 19.234375 41.085938 L 19.234375 33.65625 L 21.066406 33.65625 L 21.066406 36.417969 C 21.066406 36.417969 21.5 35.8125 22.410156 35.8125 C 23.523438 35.8125 24.175781 36.640625 24.175781 37.828125 L 24.175781 41.085938 L 22.359375 41.085938 L 22.359375 38.273438 C 22.359375 37.871094 22.167969 37.484375 21.734375 37.484375 C 21.292969 37.484375 21.066406 37.878906 21.066406 38.273438 L 21.066406 41.085938 Z M 19.234375 41.085938 "/>
<path style=" stroke:none;fill-rule:nonzero;fill:rgb(100%,100%,100%);fill-opacity:1;" d="M 27.292969 35.8125 C 25.570312 35.8125 24.539062 37.125 24.539062 38.53125 C 24.539062 40.128906 25.785156 41.222656 27.300781 41.222656 C 28.769531 41.222656 30.054688 40.179688 30.054688 38.558594 C 30.054688 36.78125 28.710938 35.8125 27.292969 35.8125 Z M 27.3125 37.484375 C 27.921875 37.484375 28.34375 37.992188 28.34375 38.53125 C 28.34375 38.992188 27.949219 39.5625 27.3125 39.5625 C 26.726562 39.5625 26.289062 39.09375 26.289062 38.527344 C 26.289062 37.980469 26.652344 37.484375 27.3125 37.484375 Z M 27.3125 37.484375 "/>
<path style=" stroke:none;fill-rule:nonzero;fill:rgb(100%,100%,100%);fill-opacity:1;" d="M 33.101562 35.8125 C 31.375 35.8125 30.347656 37.125 30.347656 38.53125 C 30.347656 40.128906 31.59375 41.222656 33.109375 41.222656 C 34.578125 41.222656 35.863281 40.179688 35.863281 38.558594 C 35.863281 36.78125 34.519531 35.8125 33.101562 35.8125 Z M 33.121094 37.484375 C 33.730469 37.484375 34.148438 37.992188 34.148438 38.53125 C 34.148438 38.992188 33.757812 39.5625 33.121094 39.5625 C 32.535156 39.5625 32.097656 39.09375 32.097656 38.527344 C 32.09375 37.980469 32.460938 37.484375 33.121094 37.484375 Z M 33.121094 37.484375 "/>
<path style=" stroke:none;fill-rule:nonzero;fill:rgb(100%,100%,100%);fill-opacity:1;" d="M 38.523438 39.980469 C 38.523438 40.652344 37.976562 41.195312 37.308594 41.195312 C 36.636719 41.195312 36.09375 40.652344 36.09375 39.980469 C 36.09375 39.308594 36.636719 38.765625 37.308594 38.765625 C 37.976562 38.765625 38.523438 39.308594 38.523438 39.980469 Z M 38.523438 39.980469 "/>
<path style=" stroke:none;fill-rule:nonzero;fill:rgb(100%,100%,100%);fill-opacity:1;" d="M 38.921875 38.316406 L 36.734375 38.316406 L 38.675781 33.65625 L 40.855469 33.65625 Z M 38.921875 38.316406 "/>
</g>
</svg>
