<?xml version="1.0" encoding="utf-8"?>
<!-- Generator: Adobe Illustrator 21.0.0, SVG Export Plug-In . SVG Version: 6.00 Build 0)  -->
<svg version="1.1" id="Capa_1" xmlns="http://www.w3.org/2000/svg" xmlns:xlink="http://www.w3.org/1999/xlink" x="0px" y="0px"
	 viewBox="0 0 40 40" enable-background="new 0 0 40 40" xml:space="preserve">
<g>
	<path fill="#599900" d="M20,4C11.164,4,4,11.164,4,20s7.164,16,16,16s16-7.164,16-16S28.836,4,20,4z M20,34c-7.72,0-14-6.28-14-14
		S12.28,6,20,6s14,6.28,14,14S27.72,34,20,34z"/>
	<path fill="#88CE00" d="M20,8C13.373,8,8,13.373,8,20s5.373,12,12,12s12-5.373,12-12S26.627,8,20,8z M26.707,22.707
		C26.512,22.902,26.256,23,26,23s-0.512-0.098-0.707-0.293L20,17.414l-5.293,5.293c-0.391,0.391-1.023,0.391-1.414,0
		s-0.391-1.023,0-1.414l6-6c0.391-0.391,1.023-0.391,1.414,0l6,6C27.098,21.684,27.098,22.316,26.707,22.707z"/>
</g>
</svg>
